<svg width="412" height="412" viewBox="0 0 412 412" fill="none" xmlns="http://www.w3.org/2000/svg">
<g clip-path="url(#clip0_1_11)">
<g opacity="0.7">
<path d="M205.67 6C232.63 6 258.78 11.28 283.39 21.69C307.17 31.75 328.52 46.14 346.86 64.48C365.2 82.82 379.6 104.17 389.65 127.95C400.06 152.56 405.34 178.71 405.34 205.67C405.34 232.63 400.06 258.78 389.65 283.39C379.59 307.17 365.2 328.52 346.86 346.86C328.52 365.2 307.17 379.6 283.39 389.65C258.78 400.06 232.63 405.34 205.67 405.34C178.71 405.34 152.56 400.06 127.95 389.65C104.17 379.59 82.82 365.2 64.48 346.86C46.14 328.52 31.7399 307.17 21.6899 283.39C11.2799 258.78 6 232.63 6 205.67C6 178.71 11.2799 152.56 21.6899 127.95C31.7499 104.17 46.14 82.82 64.48 64.48C82.82 46.14 104.17 31.74 127.95 21.69C152.56 11.28 178.71 6 205.67 6ZM205.67 0C92.0799 0 0 92.08 0 205.67C0 319.26 92.0799 411.34 205.67 411.34C319.26 411.34 411.34 319.26 411.34 205.67C411.34 92.09 319.26 0 205.67 0Z" fill="white"/>
</g>
<path d="M339.38 71.97C306.23 38.82 262.93 19.49 216.49 16.9C217.14 20.59 217.8 24.92 218.38 29.8C309.82 36.31 382 112.56 382 205.67C382 237.11 373.78 266.63 359.34 292.2C363.17 295.12 366.54 297.85 369.46 300.31C385.97 271.87 394.76 239.44 394.76 205.68C394.75 155.17 375.08 107.69 339.38 71.97Z" fill="#DBDBDA"/>
<path d="M71.96 71.97C36.25 107.69 16.5798 155.17 16.5798 205.67C16.5798 237.71 24.4999 268.54 39.4099 295.91C42.2799 293.59 45.72 290.92 49.71 288.02C36.71 263.44 29.3398 235.41 29.3398 205.67C29.3398 108.29 108.29 29.35 205.66 29.35C207.41 29.35 209.16 29.37 210.9 29.43C211.29 24.78 211.77 20.52 212.28 16.7C210.08 16.62 207.87 16.58 205.66 16.58C155.16 16.59 107.67 36.26 71.96 71.97Z" fill="#DBDBDA"/>
<path d="M355.89 298.05C324.84 348.42 269.17 382 205.66 382C140.9 382 84.2899 347.08 53.6399 295.03C48.8599 296.71 44.6499 298.02 41.1499 299.03C49.4599 313.62 59.77 327.18 71.96 339.38C107.68 375.1 155.17 394.76 205.66 394.76C256.17 394.76 303.66 375.1 339.37 339.38C350.17 328.58 359.51 316.7 367.27 303.98C363.85 302.29 360.04 300.33 355.89 298.05Z" fill="#DBDBDA"/>
</g>
<defs>
<clipPath id="clip0_1_11">
<rect width="411.34" height="411.34" fill="white"/>
</clipPath>
</defs>
</svg>
